<svg id="Layer_1" data-name="Layer 1" xmlns="http://www.w3.org/2000/svg" viewBox="0 0 653.27 653.27"><title>ptrident</title><path d="M516.76,362.51" transform="translate(-275.28 -20.52)" style="fill:none"/><path id="nodes" d="M713.38,356.17a61.19,61.19,0,1,0-50.85-27.42L633.6,358.31a60.65,60.65,0,0,0-67.19,0l-28.09-29.73a61.18,61.18,0,1,0-17.25,17.25l28.09,29.74a60.88,60.88,0,0,0,38.65,93.36V508.6a61,61,0,1,0,24.4,0V468.92a60.9,60.9,0,0,0,38.64-93.37L679.79,346A60.65,60.65,0,0,0,713.38,356.17Zm0-97.62a36.61,36.61,0,1,1-36.61,36.61A36.61,36.61,0,0,1,713.38,258.55ZM450.88,295a36.61,36.61,0,1,1,36.61,36.6A36.61,36.61,0,0,1,450.88,295Zm185.73,273.4A36.61,36.61,0,1,1,600,531.79,36.61,36.61,0,0,1,636.61,568.39ZM600,445.76a36.61,36.61,0,1,1,25.81-62.52l.06.05,0,0A36.58,36.58,0,0,1,600,445.76Z" transform="translate(-275.28 -20.52)" style="fill:#006994"/><path d="M592.42,244.15c-13.55-40.13-55.69-15.57-58.6-49.42,0,0-2.47-12.35,2.12-40.24,0,0,3.35-30-9.53-56.84L555,120.77l-9.53,2.65s9.88,22.07,7.77,40.07c0,0-1.42,28.24,16.94,29.12,0,0,19.59.53,20.48-24.18l3.17-52.95-14.47,6.35L600,76.22l20.64,45.61-14.47-6.35,3.17,53c.89,24.71,20.48,24.18,20.48,24.18,18.36-.88,16.94-29.12,16.94-29.12-2.11-18,7.77-40.07,7.77-40.07L645,120.77l28.59-23.12c-12.88,26.83-9.53,56.84-9.53,56.84,4.59,27.89,2.12,40.24,2.12,40.24-2.91,33.85-45,9.29-58.6,49.42Z" transform="translate(-275.28 -20.52)" style="stroke:#006994;stroke-miterlimit:10;stroke-width:2px;fill-rule:evenodd"/><path d="M593.1,239.22h13.8c8,0,14.56,3.55,14.56,7.94h0c0,4.38-6.52,7.93-14.56,7.93H593.1c-8,0-14.56-3.55-14.56-7.93h0C578.54,242.77,585.06,239.22,593.1,239.22Z" transform="translate(-275.28 -20.52)" style="stroke:#006994;stroke-miterlimit:10;stroke-width:2px;fill-rule:evenodd"/><polygon points="317.11 230.6 336.71 230.6 336.16 370.98 316.57 370.98 317.11 230.6" style="stroke:#006994;stroke-miterlimit:10;stroke-width:2px;fill-rule:evenodd"/><path d="M590.75,506.16" transform="translate(-275.28 -20.52)" style="stroke:#006994;stroke-miterlimit:10;stroke-width:2px;fill-rule:evenodd"/><path d="M606.48,508.79" transform="translate(-275.28 -20.52)" style="stroke:#006994;stroke-miterlimit:10;stroke-width:2px;fill-rule:evenodd"/><circle cx="324.72" cy="388.64" r="28.75" style="fill:#006994"/><circle cx="326.64" cy="326.64" r="321.14" style="fill:none;stroke:#006994;stroke-miterlimit:10;stroke-width:11px"/></svg>
